<svg width="360" height="87" viewBox="0 0 360 87" fill="none" xmlns="http://www.w3.org/2000/svg">
<g clip-path="url(#clip0_6_220)">
<path d="M134.85 65.7235C132.167 65.7235 129.609 65.4961 127.174 65.0408C124.79 64.6311 122.827 63.88 121.287 62.7876C119.796 61.6494 119.051 60.0338 119.051 57.9398V16.6996H126.802V31.7891C128.292 31.1063 129.956 30.5829 131.795 30.2187C133.633 29.8546 135.173 29.6725 136.415 29.6725C142.079 29.6725 146.327 31.2202 149.159 34.3154C151.991 37.4107 153.407 41.7122 153.407 47.2201C153.407 50.9526 152.861 54.0252 151.767 56.4377C150.724 58.85 149.308 60.7392 147.519 62.1048C145.781 63.4246 143.793 64.358 141.558 64.9042C139.372 65.4504 137.136 65.7235 134.85 65.7235ZM134.478 59.5102C137.409 59.5102 139.67 58.964 141.259 57.8715C142.849 56.7791 143.942 55.3226 144.538 53.5017C145.135 51.6809 145.433 49.6781 145.433 47.4932C145.433 43.7151 144.588 40.8246 142.899 38.8218C141.21 36.7735 138.651 35.7493 135.223 35.7493C133.931 35.7493 132.515 35.9086 130.975 36.2272C129.435 36.5459 128.044 37.0466 126.802 37.7294V56.1645C126.802 57.0747 127.199 57.7807 127.994 58.2812C128.789 58.7366 129.758 59.0548 130.901 59.2371C132.093 59.4193 133.285 59.5102 134.478 59.5102ZM178.522 65.7235C172.461 65.7235 167.94 64.1531 164.959 61.0123C162.028 57.8715 160.562 53.3879 160.562 47.5615C160.562 41.4164 162.077 36.8873 165.108 33.974C168.188 31.0608 172.635 29.6042 178.448 29.6042C184.559 29.6042 189.105 31.1746 192.086 34.3154C195.067 37.4107 196.557 41.8261 196.557 47.5615C196.557 53.3424 194.992 57.8258 191.862 61.0123C188.732 64.1531 184.285 65.7235 178.522 65.7235ZM178.448 59.6467C182.224 59.6467 184.881 58.5317 186.422 56.3011C187.962 54.0707 188.732 51.1575 188.732 47.5615C188.732 43.6468 187.937 40.6881 186.347 38.6853C184.758 36.6369 182.124 35.6127 178.448 35.6127C174.672 35.6127 172.039 36.6824 170.548 38.8218C169.058 40.9157 168.312 43.8289 168.312 47.5615C168.312 51.3395 169.082 54.2983 170.623 56.4377C172.163 58.5769 174.771 59.6467 178.448 59.6467ZM205.584 33.223C207.77 32.1761 210.453 31.3339 213.633 30.6967C216.862 30.0139 219.967 29.6725 222.948 29.6725C228.214 29.6725 232.065 30.6967 234.499 32.745C236.983 34.7478 238.226 37.8432 238.226 42.0309V64.6994H230.401V42.9868C230.401 41.8488 230.177 40.7336 229.73 39.6412C229.283 38.5487 228.413 37.6383 227.122 36.91C225.879 36.1817 224.016 35.8176 221.532 35.8176C220.141 35.8176 218.75 35.9314 217.359 36.159C215.968 36.3865 214.651 36.7052 213.409 37.1149V64.6994H205.584V33.223ZM247.089 64.6994V58.6908L266.838 36.0907H247.536V30.4236H275.483V36.2955L256.405 58.6908H275.483V64.6994H247.089ZM284.106 64.6994V56.7108H292.974V64.6994H284.106ZM317.324 65.7235C314.79 65.7235 312.356 65.4047 310.021 64.7676C307.686 64.1306 305.773 63.015 304.282 61.422C302.792 59.829 302.047 57.5984 302.047 54.7307C302.047 50.9526 303.239 48.1532 305.624 46.3324C308.058 44.4662 311.387 43.533 315.61 43.533C318.045 43.533 320.181 43.7606 322.019 44.2158C323.907 44.671 325.497 45.24 326.789 45.9228V42.7137C326.789 40.3012 325.969 38.5487 324.329 37.4562C322.74 36.3183 320.504 35.7493 317.622 35.7493C315.486 35.7493 313.3 36.0679 311.064 36.7052C308.878 37.2969 307.064 38.139 305.624 39.2315V32.5402C307.015 31.7209 309.027 31.0381 311.66 30.4918C314.293 29.9456 317.051 29.6725 319.932 29.6725C322.267 29.6725 324.553 30.0139 326.789 30.6967C329.074 31.3795 330.937 32.5629 332.378 34.2472C333.868 35.9314 334.614 38.2073 334.614 41.075L334.539 57.4618C334.539 59.6925 333.769 61.3994 332.229 62.5827C330.738 63.766 328.702 64.5854 326.118 65.0408C323.534 65.4961 320.603 65.7235 317.324 65.7235ZM309.797 54.3893C309.797 55.7549 310.22 56.8699 311.064 57.735C311.908 58.5543 312.952 59.1688 314.194 59.5785C315.486 59.9424 316.827 60.1247 318.218 60.1247C321.1 60.1247 323.236 59.9424 324.627 59.5785C326.068 59.1688 326.789 58.3269 326.789 57.0522V50.4292C325.646 49.9739 324.354 49.6098 322.913 49.3367C321.522 49.0636 320.032 48.927 318.442 48.927C312.679 48.927 309.797 50.7478 309.797 54.3893ZM345.608 24.9613V18.4748H353.955V24.9613H345.608ZM345.831 64.6994V30.6284H353.656L353.731 64.6994H345.831Z" fill="#111111"/>
<mask id="mask0_6_220" style="mask-type:alpha" maskUnits="userSpaceOnUse" x="14" y="12" width="68" height="63">
<path d="M80.3099 12.7409H15.5682C14.9044 12.7409 14.3662 13.2339 14.3662 13.8421V73.158C14.3662 73.7662 14.9044 74.2592 15.5682 74.2592H80.3099C80.9738 74.2592 81.5119 73.7662 81.5119 73.158V13.8421C81.5119 13.2339 80.9738 12.7409 80.3099 12.7409Z" fill="white"/>
</mask>
<g mask="url(#mask0_6_220)">
<path d="M80.3099 12.7409H15.5682C14.9044 12.7409 14.3662 13.2339 14.3662 13.8421V73.158C14.3662 73.7662 14.9044 74.2592 15.5682 74.2592H80.3099C80.9738 74.2592 81.5119 73.7662 81.5119 73.158V13.8421C81.5119 13.2339 80.9738 12.7409 80.3099 12.7409Z" stroke="#111111" stroke-opacity="0.6" stroke-width="46"/>
</g>
<mask id="mask1_6_220" style="mask-type:alpha" maskUnits="userSpaceOnUse" x="0" y="0" width="95" height="87">
<path d="M94.1084 42.7213L48.3291 0.778712C47.8597 0.348641 47.0986 0.348641 46.6292 0.778712L0.849895 42.7213C0.380483 43.1514 0.380483 43.8487 0.849894 44.2788L46.6292 86.2214C47.0986 86.6514 47.8597 86.6515 48.3291 86.2214L94.1084 44.2788C94.5778 43.8487 94.5778 43.1514 94.1084 42.7213Z" fill="white"/>
</mask>
<g mask="url(#mask1_6_220)">
<path d="M94.1084 42.7213L48.3291 0.778712C47.8597 0.348641 47.0986 0.348641 46.6292 0.778712L0.849895 42.7213C0.380483 43.1514 0.380483 43.8487 0.849894 44.2788L46.6292 86.2214C47.0986 86.6514 47.8597 86.6515 48.3291 86.2214L94.1084 44.2788C94.5778 43.8487 94.5778 43.1514 94.1084 42.7213Z" stroke="#111111" stroke-opacity="0.6" stroke-width="46"/>
</g>
<mask id="mask2_6_220" style="mask-type:alpha" maskUnits="userSpaceOnUse" x="6" y="6" width="83" height="75">
<path d="M87.7209 21.465L25.1852 6.11294C24.544 5.95552 23.8849 6.30416 23.7131 6.89165L6.95668 64.1863C6.78487 64.7738 7.1654 65.3777 7.80663 65.5351L70.3423 80.8872C70.9835 81.0446 71.6426 80.696 71.8145 80.1085L88.5708 22.8138C88.7427 22.2263 88.3621 21.6224 87.7209 21.465Z" fill="white"/>
</mask>
<g mask="url(#mask2_6_220)">
<path d="M87.7208 21.465L25.1852 6.11294C24.5439 5.95552 23.8848 6.30416 23.713 6.89165L6.95662 64.1863C6.78481 64.7738 7.16534 65.3777 7.80657 65.5351L70.3422 80.8872C70.9835 81.0446 71.6426 80.696 71.8144 80.1085L88.5708 22.8138C88.7426 22.2263 88.3621 21.6224 87.7208 21.465Z" stroke="#111111" stroke-opacity="0.6" stroke-width="46"/>
</g>
<mask id="mask3_6_220" style="mask-type:alpha" maskUnits="userSpaceOnUse" x="2" y="1" width="92" height="85">
<path d="M92.8683 53.8049L60.4974 2.43593C60.1655 1.90921 59.4304 1.72874 58.8555 2.03284L2.7875 31.6908C2.21259 31.9949 2.01561 32.6684 2.34754 33.1951L34.7184 84.5641C35.0503 85.0908 35.7854 85.2713 36.3604 84.9672L92.4283 55.3093C93.0032 55.0052 93.2002 54.3317 92.8683 53.8049Z" fill="white"/>
</mask>
<g mask="url(#mask3_6_220)">
<path d="M92.8683 53.8049L60.4974 2.43593C60.1655 1.90921 59.4304 1.72874 58.8555 2.03284L2.7875 31.6908C2.21259 31.9949 2.01561 32.6684 2.34754 33.1951L34.7184 84.5641C35.0503 85.0908 35.7854 85.2713 36.3604 84.9672L92.4283 55.3093C93.0032 55.0052 93.2002 54.3317 92.8683 53.8049Z" stroke="#111111" stroke-opacity="0.6" stroke-width="46"/>
</g>
<mask id="mask4_6_220" style="mask-type:alpha" maskUnits="userSpaceOnUse" x="6" y="6" width="83" height="75">
<path d="M88.4617 64.1863L71.7053 6.89165C71.5335 6.30416 70.8744 5.95552 70.2332 6.11294L7.6975 21.465C7.05628 21.6224 6.67574 22.2263 6.84756 22.8138L23.6039 80.1085C23.7758 80.696 24.4349 81.0446 25.0761 80.8872L87.6118 65.5351C88.253 65.3777 88.6335 64.7738 88.4617 64.1863Z" fill="white"/>
</mask>
<g mask="url(#mask4_6_220)">
<path d="M88.4617 64.1863L71.7053 6.89165C71.5334 6.30416 70.8743 5.95552 70.2331 6.11294L7.69745 21.465C7.05622 21.6224 6.67569 22.2263 6.84751 22.8138L23.6039 80.1085C23.7757 80.6959 24.4348 81.0446 25.076 80.8872L87.6117 65.5351C88.2529 65.3777 88.6335 64.7738 88.4617 64.1863Z" stroke="#111111" stroke-opacity="0.6" stroke-width="46"/>
</g>
<mask id="mask5_6_220" style="mask-type:alpha" maskUnits="userSpaceOnUse" x="2" y="1" width="92" height="85">
<path d="M60.4971 84.5641L92.868 33.1951C93.1999 32.6684 93.0029 31.9948 92.428 31.6907L36.3601 2.03282C35.7852 1.72871 35.05 1.90918 34.7181 2.43591L2.34726 53.8049C2.01534 54.3316 2.21231 55.0052 2.78722 55.3093L58.8552 84.9672C59.4301 85.2713 60.1652 85.0908 60.4971 84.5641Z" fill="white"/>
</mask>
<g mask="url(#mask5_6_220)">
<path d="M60.4971 84.5641L92.868 33.1951C93.1999 32.6684 93.0029 31.9948 92.428 31.6907L36.3601 2.03282C35.7852 1.72871 35.05 1.90918 34.7181 2.43591L2.34725 53.8049C2.01532 54.3316 2.21231 55.0052 2.78721 55.3093L58.8552 84.9672C59.4301 85.2713 60.1652 85.0908 60.4971 84.5641Z" stroke="#111111" stroke-opacity="0.6" stroke-width="46"/>
</g>
</g>
<defs>
<clipPath id="clip0_6_220">
<rect width="360" height="87" fill="white"/>
</clipPath>
</defs>
</svg>
